<svg width="160" height="36" viewBox="0 0 160 36" fill="none" xmlns="http://www.w3.org/2000/svg">
<path d="M0 35.4098V0.983607H11.3115C14 0.983607 16.2131 1.42623 17.9508 2.31148C19.6885 3.19672 20.9672 4.39341 21.7869 5.90164C22.6393 7.40987 23.0656 9.11472 23.0656 11.0164C23.0656 12.8852 22.6558 14.5737 21.8361 16.082C21.0164 17.5902 19.7377 18.8032 18 19.7213C16.2623 20.6066 14.0328 21.0492 11.3115 21.0492H4.13115V35.4098H0ZM4.13115 17.5574H11.2131C13.9672 17.5574 15.9181 16.9836 17.0656 15.8361C18.2459 14.6557 18.8361 13.0491 18.8361 11.0164C18.8361 8.95082 18.2459 7.34423 17.0656 6.19672C15.9181 5.01639 13.9672 4.42623 11.2131 4.42623H4.13115V17.5574ZM30.7427 5.60656C29.923 5.60656 29.2345 5.34429 28.6771 4.81967C28.1525 4.26233 27.8902 3.5738 27.8902 2.7541C27.8902 1.96721 28.1525 1.31151 28.6771 0.786885C29.2345 0.262262 29.923 0 30.7427 0C31.5296 0 32.2018 0.262262 32.7591 0.786885C33.3165 1.31151 33.5952 1.96721 33.5952 2.7541C33.5952 3.5738 33.3165 4.26233 32.7591 4.81967C32.2018 5.34429 31.5296 5.60656 30.7427 5.60656ZM28.6771 35.4098V11.0164H32.8083V35.4098H28.6771ZM92.2243 36C89.8965 36 87.8309 35.4754 86.0276 34.4262C84.2243 33.3443 82.798 31.8525 81.7489 29.9508C80.7325 28.0491 80.2243 25.8033 80.2243 23.2131C80.2243 20.6557 80.7325 18.4263 81.7489 16.5246C82.7653 14.5902 84.1751 13.0983 85.9784 12.0492C87.8144 10.9672 89.9292 10.4262 92.3227 10.4262C94.6833 10.4262 96.716 10.9672 98.4214 12.0492C100.159 13.0983 101.487 14.4918 102.405 16.2295C103.323 17.9672 103.781 19.836 103.781 21.8361C103.781 22.1967 103.765 22.5574 103.732 22.918C103.732 23.2787 103.732 23.6886 103.732 24.1475H84.3063C84.4046 26.0164 84.8309 27.5738 85.585 28.8197C86.3718 30.0328 87.3391 30.9508 88.4866 31.5738C89.6669 32.1968 90.9128 32.5082 92.2243 32.5082C93.9288 32.5082 95.3551 32.1148 96.5033 31.3279C97.6505 30.541 98.4868 29.4754 99.0114 28.1311H103.093C102.438 30.3934 101.175 32.2787 99.3059 33.7869C97.4705 35.2623 95.1097 36 92.2243 36ZM92.2243 13.918C90.2571 13.918 88.503 14.5246 86.962 15.7377C85.4538 16.918 84.585 18.6557 84.3554 20.9508H99.6995C99.6013 18.7541 98.8468 17.0328 97.4378 15.7869C96.0278 14.541 94.2897 13.918 92.2243 13.918ZM109.257 35.4098V11.0164H112.995L113.339 15.6885C114.094 14.0819 115.241 12.8032 116.782 11.8525C118.323 10.9017 120.224 10.4262 122.487 10.4262V14.7541H121.355C119.913 14.7541 118.585 15.0164 117.372 15.541C116.159 16.0328 115.192 16.8852 114.47 18.0984C113.749 19.3115 113.388 20.9836 113.388 23.1148V35.4098H109.257ZM129.632 5.60656C128.812 5.60656 128.123 5.34429 127.566 4.81967C127.041 4.26233 126.779 3.5738 126.779 2.7541C126.779 1.96721 127.041 1.31151 127.566 0.786885C128.123 0.262262 128.812 0 129.632 0C130.418 0 131.09 0.262262 131.648 0.786885C132.206 1.31151 132.484 1.96721 132.484 2.7541C132.484 3.5738 132.206 4.26233 131.648 4.81967C131.09 5.34429 130.418 5.60656 129.632 5.60656ZM127.566 35.4098V11.0164H131.698V35.4098H127.566ZM147.005 36C144.972 36 143.283 35.6557 141.94 34.9672C140.595 34.2787 139.595 33.3606 138.94 32.2131C138.283 31.0656 137.956 29.8196 137.956 28.4754C137.956 25.9836 138.907 24.0655 140.808 22.7213C142.71 21.3771 145.301 20.7049 148.579 20.7049H155.169V20.4098C155.169 18.2787 154.611 16.6721 153.497 15.5902C152.382 14.4754 150.89 13.918 149.021 13.918C147.415 13.918 146.021 14.3278 144.841 15.1475C143.693 15.9344 142.972 17.0984 142.677 18.6393H138.448C138.612 16.8689 139.202 15.3771 140.218 14.1639C141.267 12.9508 142.562 12.0328 144.103 11.4098C145.644 10.7541 147.284 10.4262 149.021 10.4262C152.431 10.4262 154.988 11.3443 156.694 13.1803C158.431 14.9836 159.3 17.3935 159.3 20.4098V35.4098H155.611L155.366 31.0328C154.678 32.4098 153.661 33.5902 152.317 34.5738C151.005 35.5246 149.235 36 147.005 36ZM147.644 32.5082C149.218 32.5082 150.562 32.0984 151.677 31.2787C152.825 30.459 153.694 29.3935 154.284 28.082C154.874 26.7705 155.169 25.3934 155.169 23.9508V23.9016H148.923C146.497 23.9016 144.775 24.3279 143.759 25.1803C142.775 26 142.283 27.0328 142.283 28.2787C142.283 29.5574 142.742 30.5902 143.661 31.377C144.611 32.1311 145.94 32.5082 147.644 32.5082Z" fill="black"/>
<path d="M49.6407 35.4098C47.4111 35.4098 45.6571 34.8689 44.3784 33.7869C43.0997 32.7049 42.4603 30.7541 42.4603 27.9344V14.5082H38.2308V11.0164H42.4603L43.0013 5.16394H46.5915V11.0164H53.7718V14.5082H46.5915V27.9344C46.5915 29.4754 46.9029 30.5246 47.5259 31.082C48.1488 31.6066 49.2472 31.8689 50.821 31.8689H53.3784V35.4098H49.6407ZM57.3481 35.4098V32.0164L70.9219 14.459H57.594V11.0164H75.5448V14.4098L61.9711 31.9672H75.7908V35.4098H57.3481Z" fill="#E6342A"/>
<path d="M56.8338 26.0885L62.3029 18.9592L53.5913 17.9282C53.9191 18.9087 54.0892 19.9996 54.1681 21.254C54.1878 21.5781 54.2271 21.7323 54.2986 21.8552C54.3595 21.9589 55.2261 22.9117 55.6707 23.4974C56.2319 24.2364 56.6185 25.1016 56.8338 26.0885ZM55.4848 27.8479C55.4473 26.4312 55.0935 25.3004 54.4365 24.4346C54.0797 23.9648 53.1185 22.9082 52.9596 22.6347C52.7517 22.2778 52.6549 21.8971 52.6209 21.351C52.5303 19.8962 52.3049 18.7109 51.8454 17.7216L50.47 17.5589C50.4289 19.5973 50.8217 21.6211 51.6224 23.4961C52.4078 25.3572 53.5764 27.0319 55.0522 28.4113L55.484 27.8483L55.4848 27.8479ZM54.6666 30.1362C52.7156 28.5109 51.1826 26.4414 50.196 24.1016C49.1782 21.7038 48.7667 19.1479 48.9658 16.6309C48.9741 16.5269 49.0033 16.4257 49.0515 16.3333C49.0998 16.2408 49.1662 16.1591 49.2469 16.093C49.3275 16.0268 49.4207 15.9777 49.5208 15.9484C49.6208 15.9192 49.7258 15.9104 49.8293 15.9226L63.8379 17.5803C63.9737 17.5965 64.1029 17.6484 64.2122 17.7306C64.3215 17.8128 64.4071 17.9226 64.4602 18.0486C64.5134 18.1746 64.5322 18.3125 64.5149 18.4482C64.4975 18.5838 64.4444 18.7125 64.3612 18.8211L55.777 30.0117C55.7134 30.0943 55.634 30.1632 55.5432 30.2144C55.4524 30.2655 55.3523 30.2978 55.2488 30.3094C55.1453 30.321 55.0405 30.3116 54.9407 30.2817C54.8409 30.2518 54.7481 30.2022 54.6681 30.1357L54.6666 30.1362ZM57.9233 22.4764C58.0036 22.6655 58.0054 22.8788 57.9285 23.0694C57.8515 23.2599 57.7019 23.412 57.5128 23.4924C57.3237 23.5726 57.1103 23.5745 56.9199 23.4975C56.7293 23.4206 56.5771 23.271 56.4969 23.0819C56.4166 22.8927 56.4147 22.6794 56.4917 22.4888C56.5687 22.2984 56.7181 22.1462 56.9073 22.0659C57.0965 21.9857 57.3097 21.9837 57.5003 22.0607C57.6909 22.1377 57.843 22.2872 57.9233 22.4764ZM59.1547 19.4286C59.235 19.6177 59.2368 19.831 59.1598 20.0215C59.0828 20.2121 58.9334 20.3642 58.7442 20.4445C58.555 20.5248 58.3418 20.5266 58.1512 20.4496C57.9607 20.3727 57.8086 20.2232 57.7283 20.034C57.6479 19.8448 57.6461 19.6316 57.7231 19.441C57.8001 19.2505 57.9496 19.0984 58.1388 19.0181C58.3279 18.9377 58.5412 18.9359 58.7317 19.0129C58.9222 19.0899 59.0744 19.2394 59.1547 19.4286Z" fill="#E6342A"/>
</svg>
